<svg width="32" height="32" viewBox="0 0 100 100" fill="none" xmlns="http://www.w3.org/2000/svg">
  <!-- Dark background -->
  <rect width="100" height="100" rx="16" fill="#111827"/>

  <!-- Bold ink-brush C-stroke -->
  <path
    d="M78 14 C 60 2, 24 4, 10 28 C -2 50, 6 76, 24 90 C 38 100, 58 100, 72 92"
    stroke="#e5e7eb"
    stroke-width="12"
    stroke-linecap="round"
    stroke-linejoin="round"
    fill="none"
  />
  <path
    d="M74 18 C 58 8, 28 10, 16 32 C 6 52, 12 74, 28 88"
    stroke="#e5e7eb"
    stroke-width="5"
    stroke-linecap="round"
    fill="none"
    opacity="0.22"
  />
  <path d="M72 92 C 78 88, 82 84, 80 80" stroke="#e5e7eb" stroke-width="4" stroke-linecap="round" fill="none" opacity="0.5"/>

  <!-- Waves -->
  <path d="M20 80 C 30 76, 40 83, 52 79 C 62 75, 72 82, 80 78" stroke="#e5e7eb" stroke-width="2.8" stroke-linecap="round" fill="none" opacity="0.65"/>
  <path d="M16 88 C 28 84, 40 91, 54 87 C 66 83, 76 89, 84 86" stroke="#e5e7eb" stroke-width="2" stroke-linecap="round" fill="none" opacity="0.42"/>

  <!-- Lighthouse -->
  <rect x="44" y="84" width="14" height="3" rx="1.2" fill="#e5e7eb" opacity="0.82"/>
  <path d="M46 64 L46 84 L56 84 L56 64 Z" fill="#e5e7eb" opacity="0.82"/>
  <path d="M46 64 L47 58 L55 58 L56 64 Z" fill="#e5e7eb" opacity="0.82"/>
  <rect x="45" y="51" width="12" height="8" rx="1.2" fill="#e5e7eb" opacity="0.88"/>
  <polygon points="51,43 44,51 58,51" fill="#e5e7eb" opacity="0.9"/>
  <circle cx="51" cy="55" r="2" fill="#DC2626" opacity="0.9"/>

  <!-- Rising sun -->
  <circle cx="80" cy="30" r="11" fill="#DC2626"/>
</svg>
